<svg width="99" height="32" viewBox="0 0 99 32" fill="none" xmlns="http://www.w3.org/2000/svg">
<path d="M0 16C0 3.2 3.2 0 16 0C28.8 0 32 3.2 32 16C32 28.8 28.8 32 16 32C3.2 32 0 28.8 0 16Z" fill="url(#paint0_linear_2422_4740)"/>
<circle cx="16" cy="16" r="10" fill="white"/>
<path d="M20.2431 7.83529C18.9323 7.15507 17.4772 6.79999 16.0004 6.79999C14.5236 6.79999 13.0684 7.15507 11.7577 7.83529L19.9222 15.9979L24.1651 11.7557C23.2901 10.0783 21.9211 8.70979 20.2431 7.83529Z" fill="#FF9500"/>
<path d="M12.0781 16.0016L7.83491 20.2432C8.96015 22.4079 10.8994 24.0371 13.226 24.7723C15.5526 25.5075 18.076 25.2886 20.2412 24.1636L12.0781 16.0016Z" fill="#4CD964"/>
<path d="M24.1641 11.7592L15.9998 19.9209L20.243 24.1631C22.4079 23.0379 24.0372 21.0989 24.7724 18.7727C25.5076 16.4465 25.2885 13.9236 24.1632 11.7589L24.1641 11.7592Z" fill="#007AFF"/>
<path d="M11.756 7.83558C9.59173 8.96136 7.96306 10.9002 7.22786 13.226C6.49266 15.5518 6.71108 18.0743 7.83513 20.2391L15.9985 12.0771L11.756 7.83558Z" fill="#FF3B30"/>
<path d="M15.9995 12.0793L12.0788 15.9993L15.9995 19.9193L19.9202 15.9993L15.9995 12.0793Z" fill="#393A3D"/>
<path d="M15.999 12.811L19.1882 15.9996L15.999 19.1873L12.8108 15.9996L15.999 12.811Z" fill="#EEF3F6"/>
<g opacity="0.15">
<path d="M13.2259 17.1478L7.85538 20.2211L12.0781 16L13.2259 17.1478Z" fill="black"/>
<path d="M14.8511 13.2248L11.777 7.85522L15.9997 12.0775L14.8511 13.2248Z" fill="black"/>
<path d="M18.7729 14.8504L24.1434 11.7769L19.9207 15.9989L18.7729 14.8504Z" fill="black"/>
<path d="M17.148 18.7732L20.2221 24.1427L15.9994 19.921L17.148 18.7732Z" fill="black"/>
</g>
<path d="M41.0524 22.7959H39V13.0231H41.0524V17.726L44.899 13.0231H47.3592L43.431 17.8076L47.3863 22.7959H44.7631L41.0524 17.9435V22.7959Z" fill="#111111"/>
<path d="M55.5146 13.0234V14.7224H52.1437C51.4098 14.7224 50.8411 14.915 50.4379 15.3001C50.0347 15.6852 49.8331 16.2538 49.8331 17.0059H55.5146V18.7049H49.8331C49.8331 19.5204 49.9826 20.0936 50.2816 20.4243C50.5806 20.7551 50.8593 20.9499 51.1175 21.0088C51.4554 21.0751 51.7995 21.1048 52.1437 21.0971H55.5146V22.7962H52.0622C51.4098 22.7962 50.8547 22.7395 50.3971 22.6263C49.9395 22.513 49.4797 22.2842 49.0175 21.9398C48.4795 21.49 48.0732 20.9029 47.8418 20.2408C47.6059 19.5497 47.4887 18.8236 47.4952 18.0933L47.5224 17.5088C47.5217 17.1616 47.5581 16.8153 47.6311 16.4758C47.7001 16.1529 47.7909 15.835 47.903 15.5244C48.0005 15.2484 48.1281 14.984 48.2836 14.736C48.4692 14.4605 48.6833 14.2054 48.9224 13.9749C49.2084 13.6909 49.5578 13.4789 49.9418 13.3564C50.3065 13.2331 50.6819 13.1444 51.0632 13.0914C51.4125 13.0461 51.7643 13.0234 52.1165 13.0234H55.5146ZM51.3442 12.1807H50.4199L51.5321 10.2914H53.1224L54.2813 12.1807H53.357L52.334 11.2021L51.3442 12.1807Z" fill="#111111"/>
<path d="M65.5994 22.796H63.4654V14.7495H60.3392V13.0505H68.7528V14.7495H65.5994V22.796Z" fill="#111111"/>
<path d="M69.419 15.7554C69.6273 15.0397 69.9082 14.5096 70.2617 14.1651C70.6151 13.8207 70.9413 13.5692 71.2403 13.4108C71.5398 13.2521 71.8569 13.129 72.1849 13.0438C72.4771 12.965 72.7746 12.9082 73.0752 12.8739C73.3779 12.8449 73.6819 12.8312 73.9859 12.8331C74.6383 12.8331 75.1526 12.8807 75.5286 12.9758C75.9047 13.071 76.1629 13.1412 76.3034 13.1865C76.5102 13.2623 76.7103 13.3555 76.9014 13.4652C77.1584 13.6048 77.3904 13.7862 77.5878 14.002C78.0499 14.4461 78.3852 15.0238 78.5936 15.735C78.8016 16.4435 78.9069 17.1782 78.9062 17.9166C78.905 18.6593 78.7998 19.3982 78.5936 20.1117C78.3851 20.8412 78.043 21.428 77.5674 21.8719C77.0965 22.3134 76.5175 22.6228 75.8888 22.769C75.2748 22.9194 74.6452 22.9969 74.0131 23C73.4226 23.002 72.834 22.9335 72.2597 22.7962C72.0816 22.7634 71.9065 22.7157 71.7364 22.6534C71.5333 22.5739 71.3358 22.4808 71.1452 22.3748C70.8862 22.2311 70.6464 22.0553 70.4316 21.8515C70.1877 21.6249 69.9813 21.3611 69.8199 21.07C69.6521 20.7709 69.4936 20.3586 69.3442 19.8331C69.1948 19.3075 69.1201 18.6596 69.1199 17.8894C69.1157 17.1673 69.2164 16.4485 69.419 15.7554ZM71.5121 16.4584C71.3991 16.9292 71.3444 17.4121 71.349 17.8962C71.349 18.4118 71.4374 19.02 71.6141 19.7207C71.7908 20.4215 72.1419 20.8646 72.6675 21.0502C73.193 21.2356 73.637 21.3283 73.9995 21.3282C74.3448 21.3294 74.6884 21.2791 75.0189 21.1789C75.7982 20.8986 76.283 20.3063 76.4733 19.4019C76.6023 18.9244 76.6663 18.4316 76.6636 17.937C76.6636 17.4124 76.6205 16.9851 76.5344 16.6551C76.4483 16.325 76.3894 16.1148 76.3577 16.0244C76.3005 15.8815 76.2323 15.7432 76.1538 15.6107C76.0366 15.4094 75.8874 15.2284 75.7121 15.0748C75.5386 14.913 75.3323 14.7904 75.1073 14.7153C74.9185 14.6535 74.7254 14.606 74.5296 14.573C74.0205 14.4936 73.4999 14.5307 73.0073 14.6818C72.3005 14.9347 71.8021 15.5269 71.5121 16.4584Z" fill="#111111"/>
<path d="M81.1215 22.7963H78.9468L83.0516 13.0235H85.2264L89.3991 22.7963H87.1157L86.2186 20.4584H81.9642L81.1215 22.7963ZM82.6303 18.7322H85.5526L84.071 14.9944L82.6303 18.7322ZM84.0167 12.1264H83.0788L84.3836 10.2371H86.3409L84.0167 12.1264Z" fill="#111111"/>
<path d="M92.1991 22.7959H90.0923V13.0231H92.702L96.6845 20.0639L96.603 13.0231H98.669V22.7959H96.3039L92.1176 15.4153L92.1991 22.7959Z" fill="#111111"/>
<path d="M55.0433 10.8894H54.1055L55.4103 9.00006H57.3676L55.0433 10.8894Z" fill="#111111"/>
<defs>
<linearGradient id="paint0_linear_2422_4740" x1="16" y1="0" x2="16" y2="32" gradientUnits="userSpaceOnUse">
<stop stop-color="#3DC9F9"/>
<stop offset="1" stop-color="#02A3EC"/>
</linearGradient>
</defs>
</svg>
